<mxfile host="app.diagrams.net" modified="2022-03-10T07:54:10.017Z" agent="5.0 (Macintosh; Intel Mac OS X 10_15_7) AppleWebKit/537.36 (KHTML, like Gecko) Chrome/98.0.4758.109 Safari/537.36" etag="9MC09lI_Mq50hCCqYpRH" version="16.6.1" type="github">
  <diagram id="EE_QAnR2eOXKkChqaZj-" name="Page-1">
    <mxGraphModel dx="1426" dy="794" grid="1" gridSize="10" guides="1" tooltips="1" connect="1" arrows="1" fold="1" page="1" pageScale="1" pageWidth="827" pageHeight="1169" math="0" shadow="0">
      <root>
        <mxCell id="0" />
        <mxCell id="1" parent="0" />
        <mxCell id="Pubb2oYmNpBjPFeqh5xN-14" value="" style="line;strokeWidth=2;html=1;fillColor=none;fontSize=28;fontColor=#004D99;strokeColor=#004D99;" vertex="1" parent="1">
          <mxGeometry x="100" y="450" width="1000" height="10" as="geometry" />
        </mxCell>
        <mxCell id="Pubb2oYmNpBjPFeqh5xN-15" value="3月11日" style="shape=offPageConnector;whiteSpace=wrap;html=1;fillColor=#0075E8;fontSize=15;fontColor=#FFFFFF;size=0.5093750000000015;verticalAlign=top;strokeColor=none;" vertex="1" parent="1">
          <mxGeometry x="180" y="390" width="160" height="40" as="geometry" />
        </mxCell>
        <mxCell id="Pubb2oYmNpBjPFeqh5xN-16" value="&lt;span&gt;3月25日&lt;/span&gt;" style="shape=offPageConnector;whiteSpace=wrap;html=1;fillColor=#0075E8;fontSize=15;fontColor=#FFFFFF;size=0.5093750000000015;verticalAlign=top;strokeColor=none;" vertex="1" parent="1">
          <mxGeometry x="633" y="390" width="160" height="40" as="geometry" />
        </mxCell>
        <mxCell id="Pubb2oYmNpBjPFeqh5xN-17" value="&lt;span&gt;3月18日&lt;/span&gt;" style="shape=offPageConnector;whiteSpace=wrap;html=1;fillColor=#0075E8;fontSize=15;fontColor=#FFFFFF;size=0.4178571428571445;flipV=1;verticalAlign=bottom;strokeColor=none;spacingBottom=4;" vertex="1" parent="1">
          <mxGeometry x="407" y="475" width="160" height="35" as="geometry" />
        </mxCell>
        <mxCell id="Pubb2oYmNpBjPFeqh5xN-18" value="3月31日" style="shape=offPageConnector;whiteSpace=wrap;html=1;fillColor=#0075E8;fontSize=15;fontColor=#FFFFFF;size=0.4178571428571445;flipV=1;verticalAlign=bottom;strokeColor=none;spacingBottom=4;" vertex="1" parent="1">
          <mxGeometry x="860" y="475" width="160" height="35" as="geometry" />
        </mxCell>
        <mxCell id="Pubb2oYmNpBjPFeqh5xN-19" value="" style="ellipse;whiteSpace=wrap;html=1;fillColor=#61BAFF;fontSize=28;fontColor=#004D99;strokeWidth=3;strokeColor=#004D99;" vertex="1" parent="1">
          <mxGeometry x="250" y="445" width="20" height="20" as="geometry" />
        </mxCell>
        <mxCell id="Pubb2oYmNpBjPFeqh5xN-20" value="" style="ellipse;whiteSpace=wrap;html=1;fillColor=#61BAFF;fontSize=28;fontColor=#004D99;strokeWidth=3;strokeColor=#004D99;" vertex="1" parent="1">
          <mxGeometry x="477" y="445" width="20" height="20" as="geometry" />
        </mxCell>
        <mxCell id="Pubb2oYmNpBjPFeqh5xN-21" value="" style="ellipse;whiteSpace=wrap;html=1;fillColor=#61BAFF;fontSize=28;fontColor=#004D99;strokeWidth=3;strokeColor=#004D99;" vertex="1" parent="1">
          <mxGeometry x="703" y="445" width="20" height="20" as="geometry" />
        </mxCell>
        <mxCell id="Pubb2oYmNpBjPFeqh5xN-22" value="" style="ellipse;whiteSpace=wrap;html=1;fillColor=#61BAFF;fontSize=28;fontColor=#004D99;strokeWidth=3;strokeColor=#004D99;" vertex="1" parent="1">
          <mxGeometry x="930" y="445" width="20" height="20" as="geometry" />
        </mxCell>
        <mxCell id="Pubb2oYmNpBjPFeqh5xN-23" value="&lt;h1&gt;&lt;br&gt;&lt;/h1&gt;&lt;p&gt;完成k8s-operator分享内容框架.&lt;/p&gt;" style="text;html=1;spacing=5;spacingTop=-20;whiteSpace=wrap;overflow=hidden;strokeColor=none;strokeWidth=3;fillColor=#E6E6E6;fontSize=13;fontColor=#000000;align=center;rounded=1;" vertex="1" parent="1">
          <mxGeometry x="153" y="480" width="215" height="120" as="geometry" />
        </mxCell>
        <mxCell id="Pubb2oYmNpBjPFeqh5xN-24" value="&lt;h1&gt;&lt;br&gt;&lt;/h1&gt;&lt;p&gt;完成operator分享的基础内容（背景/目的/技术原理等）&lt;/p&gt;" style="text;html=1;spacing=5;spacingTop=-20;whiteSpace=wrap;overflow=hidden;strokeColor=none;strokeWidth=3;fillColor=#E6E6E6;fontSize=13;fontColor=#000000;align=center;rounded=1;" vertex="1" parent="1">
          <mxGeometry x="379" y="300" width="215" height="120" as="geometry" />
        </mxCell>
        <mxCell id="Pubb2oYmNpBjPFeqh5xN-25" value="&lt;h1&gt;&lt;br&gt;&lt;/h1&gt;&lt;p&gt;完成kubebuilder框架原理、k8s源码、demo实现&lt;/p&gt;" style="text;html=1;spacing=5;spacingTop=-20;whiteSpace=wrap;overflow=hidden;strokeColor=none;strokeWidth=3;fillColor=#E6E6E6;fontSize=13;fontColor=#000000;align=center;rounded=1;" vertex="1" parent="1">
          <mxGeometry x="605" y="480" width="215" height="120" as="geometry" />
        </mxCell>
        <mxCell id="Pubb2oYmNpBjPFeqh5xN-26" value="&lt;h1&gt;&lt;br&gt;&lt;/h1&gt;&lt;p&gt;调试demo、完善分享内容，并完成分享&lt;/p&gt;" style="text;html=1;spacing=5;spacingTop=-20;whiteSpace=wrap;overflow=hidden;strokeColor=none;strokeWidth=3;fillColor=#E6E6E6;fontSize=13;fontColor=#000000;align=center;rounded=1;" vertex="1" parent="1">
          <mxGeometry x="833" y="300" width="215" height="120" as="geometry" />
        </mxCell>
      </root>
    </mxGraphModel>
  </diagram>
</mxfile>
